# xmcd
#
# Track frame offsets:
#	150
#	15855
#	38192
#	55427
#	74402
#	88275
#	102975
#	118112
#	134820
#	153167
#	174060
#	188375
#	204877
#	221124
#	240356
#
# Disc length: 3440 seconds
#
# Revision: 1
# Processed by: cddbd v1.5.2PL0 Copyright (c) Steve Scherf et al.
# Submitted via: audiograbber 1.83.01
#
DISCID=c70d6e0f
DTITLE=Clint Black - 18CAFA1
DYEAR=1900
DGENRE=Country
TTITLE0=Clint Black - Put Yourself in my Shoes
TTITLE1=Clint Black - We Tell Ourselves
TTITLE2=Clint Black - State of Mind
TTITLE3=Clint Black - Loving Blind
TTITLE4=Clint Black - Killin' Time
TTITLE5=Clint Black - Better Man
TTITLE6=Clint Black - Where Are You Now
TTITLE7=Clint Black - When My Ship Comes In
TTITLE8=Line Dance - Electric Slide
TTITLE9=Clarence Careter - Strokin'
TTITLE10=Clint Black - Life Gets Away
TTITLE11=Clint Black - Loosen Up My Strings
TTITLE12=Clint Black - The Shoes You're Wearin'
TTITLE13=Clint Black - When I Said I Do
TTITLE14=Clint Black - Spend My Time
EXTD=
EXTT0=
EXTT1=
EXTT2=
EXTT3=
EXTT4=
EXTT5=
EXTT6=
EXTT7=
EXTT8=
EXTT9=
EXTT10=
EXTT11=
EXTT12=
EXTT13=
EXTT14=
PLAYORDER=
